#tb 0: 1/22050
0,          0,          0,     1024,      512, 0x6694cc55
0,       1024,       1024,     1024,      512, 0xdbc5cb22
0,       2048,       2048,     1024,      512, 0x8e5bcbfd
0,       3072,       3072,     1024,      512, 0x7b2ac519
0,       4096,       4096,     1024,      512, 0x6ae0cb0c
0,       5120,       5120,     1024,      512, 0x055ec435
0,       6144,       6144,     1024,      512, 0x9424c8d6
0,       7168,       7168,     1024,      512, 0x58fccb7d
0,       8192,       8192,     1024,      512, 0x348fd253
0,       9216,       9216,     1024,      512, 0xe1b1c24e
0,      10240,      10240,      192,       96, 0x95f81350
